<svg xmlns="http://www.w3.org/2000/svg" xmlns:xlink="http://www.w3.org/1999/xlink" fill="none" version="1.1" width="256" height="256" viewBox="0 0 256 256"><defs><clipPath id="master_svg0_314_39436"><rect x="0" y="0" width="256" height="256" rx="0"/></clipPath><clipPath id="master_svg1_314_39436/301_40015"><rect x="31.300376892089844" y="46.56551742553711" width="184.2176055908203" height="163.89117431640625" rx="0"/></clipPath></defs><g clip-path="url(#master_svg0_314_39436)"><g clip-path="url(#master_svg1_314_39436/301_40015)"><g><path d="M135.3767164711914,94.05353137016601C134.73032147119142,94.11112877016602,134.0967164711914,94.13673017016602,133.4759164711914,94.13673017016602C129.51431367119142,94.13673017016602,126.10311267119141,92.95913217016601,123.3511099711914,90.64233047016602C123.1911098711914,90.50793104016601,123.0759148711914,90.41833144016601,122.9991080711914,90.35433241716602L122.8967053711914,90.27753067016602L120.5927017911914,93.32393197016602C119.71590483119141,94.46313097016602,119.7735025011914,95.49993277016601,120.77190089119141,96.31913137016602C122.3527018711914,97.62473157016602,124.4711007711914,98.61673067016602,127.0566963711914,99.26953127016601C129.0918922711914,99.78153327016602,131.3958974711914,100.06953147016601,133.5462964711914,100.06953147016601C134.3270964711914,100.06953147016601,135.1207024711914,100.03113367016601,135.9078974711914,99.96712967016602L136.0358964711914,99.95433137016602L135.5110904711914,94.04713487016602L135.38309247119142,94.05993267016602L135.3767164711914,94.05353137016601Z" fill="#000000" fill-opacity="1" style="mix-blend-mode:passthrough"/></g><g><path d="M202.31479689208984,62.86631542553711C192.75957689208985,52.35751582553711,179.56278689208983,46.56551742553711,165.16278689208985,46.56551742553711C148.72759689208985,46.56551742553711,137.38038689208986,53.48391582553711,130.74997689208985,59.288715425537106C123.82517989208985,65.34951242553711,120.50358589208984,71.4359164255371,120.14518689208984,72.1143134255371C113.63639089208985,84.05671342553711,108.77238489208985,87.03271142553712,101.37397789208984,90.89831142553712C98.09718289208985,92.6071054255371,97.04118389208985,95.05830742553711,96.73397789208984,96.80550742553712C96.26677689208984,99.51270642553712,97.26517489208985,102.4439084255371,99.47318289208984,104.8375094255371C100.08757789208984,105.5031094255371,101.04118389208985,106.4119144255371,102.30837989208985,107.53830342553711L101.12438189208984,108.91431842553712C99.70358289208984,110.3095094255371,99.07638589208985,111.60231442553712,99.20438389208984,112.8631094255371C99.31317089208984,113.9447064255371,100.39477489208984,115.2247124255371,102.42998489208985,116.6583064255371C103.42838289208984,117.3687094255371,104.54837789208985,118.14310042553711,105.72598289208985,118.96870842553712C108.65077989208984,121.01031142553711,111.95957989208985,123.32710642553711,114.03958089208984,124.9143184255371C114.33399989208985,125.13830142553711,114.32758289208985,125.23430242553711,114.32118989208985,125.2471044255371C114.32118989208985,125.26630742553711,114.28278389208984,125.3367044255371,114.02677889208984,125.4199024255371C113.82839189208984,125.4839054255371,113.54038989208985,125.54151542553711,113.11798889208984,125.60550342553711L100.95158389208984,127.5127064255371L101.01557889208985,130.2198984255371C101.13718389208984,135.1799124255371,101.57237989208984,139.2246974255371,103.28118089208985,142.8406944255371C104.24758889208984,144.8759044255371,105.54038189208984,146.61030742553712,107.23638189208984,148.1463074255371C108.14518689208984,148.9654974255371,109.18197589208984,149.72711742553713,110.31478089208984,150.42468742553712C111.49877889208985,151.1479074255371,112.82997889208984,151.81350742553713,114.27638989208984,152.4022974255371C123.45397189208984,156.1654874255371,125.77717589208984,157.4518974255371,125.77717589208984,160.45989742553712C125.77717589208984,164.6135174255371,124.38839689208984,166.62949742553712,120.27317789208985,172.61988742553712C119.61399089208984,173.57989742553713,118.86518089208984,174.6614774255371,118.04597489208984,175.8774874255371C116.70837389208984,177.8550874255371,115.41558789208985,179.80068742553712,113.50197589208985,182.8406774255371C108.97716489208985,178.5654874255371,103.54357889208984,173.0231074255371,97.77717589208984,166.7894974255371C91.79957989208984,160.3318874255371,85.87957789208984,153.57989742553713,80.48437889208984,147.0647074255371L99.81237789208984,126.61671042553711L67.83797789208984,100.26151242553712L32.06837684208984,150.2454874255371C30.557977082089845,152.35110742553712,31.658776972089843,154.37991742553712,32.13237703208984,155.2439074255371L32.30517699208984,155.51910742553713C36.88757709208984,162.05989742553712,43.594777892089844,167.6087074255371,52.24757789208984,171.9990874255371L52.47157689208984,172.10788742553711C53.26517889208984,172.4278874255371,53.96917489208984,172.5686974255371,54.583573892089845,172.5750774255371C55.99797489208984,172.6006874255371,56.97077589208985,171.9542774255371,57.60437589208985,171.28869742553712L64.40757389208984,164.0887074255371C68.85557889208985,170.7574774255371,74.39157889208985,178.55909742553712,80.11958289208985,186.21347742553712C86.78198289208984,195.1222974255371,93.44437389208984,203.4870674255371,99.38356789208984,210.4054974255371L99.42197389208984,210.4502574255371L105.18197589208984,210.4502574255371L105.21397389208984,210.37348742553712C110.44916489208984,198.70629742553712,117.77716789208985,187.42308742553712,122.16118589208985,180.6838774255371C122.48757189208985,180.1847074255371,122.78838389208984,179.71749742553712,123.07638589208985,179.2694774255371C123.58837889208985,178.4758674255371,124.09396389208985,177.75267742553712,124.58038289208984,177.05506742553712C124.82357789208984,176.70307742553712,125.05397789208985,176.3766874255371,125.27797689208984,176.0502574255371C127.28757489208985,173.12546742553712,128.88117189208984,170.8086774255371,129.98837289208984,168.56226742553713C136.02358689208984,169.1958774255371,142.02676689208982,169.5158774255371,147.84437689208983,169.5158774255371C153.66196689208985,169.5158774255371,159.01878689208985,169.2086774255371,164.26036689208985,168.61348742553713C164.59314689208983,173.7782774255371,165.59157689208985,179.0710674255371,166.64755689208985,184.67748742553712C167.35796689208985,188.4534874255371,168.10675689208983,192.49828742553711,168.69556689208986,196.77347742553712C169.36755689208985,201.6694574255371,169.73236689208986,206.1046574255371,169.80275689208983,210.3286674255371L169.80275689208983,210.4566874255371L175.86997689208985,210.4566874255371L175.86997689208985,210.3286674255371C175.79956689208984,205.86147742553712,175.42195689208984,201.2086874255371,174.72437689208985,196.1078774255371C174.11635689208984,191.6727074255371,173.34195689208985,187.4742674255371,172.60594689208983,183.55747742553712C171.37076689208985,177.0294874255371,170.21236689208985,170.8598974255371,170.21236689208985,165.1958774255371C170.21236689208985,152.4022774255371,180.01715689208984,146.39268842553713,188.66995689208986,141.0935024255371L188.71475689208984,141.06789742553713C191.64595689208986,139.2694894255371,194.41074689208983,137.57348242553712,196.67633689208984,135.69190642553713C209.36118689208985,125.18310942553711,215.52435689208986,111.8903004255371,215.52435689208986,95.07110942553712C215.52435689208986,84.00550442553711,210.58997689208985,71.96711142553711,202.32115689208985,62.87270942553711L202.31479689208984,62.86631542553711ZM61.834775892089844,117.2534984255371C61.834775892089844,117.2534984255371,63.21077689208984,117.90630742553711,63.76117689208984,119.3399084255371C64.02357089208985,120.03110842553711,63.825172892089846,120.84390642553711,63.364375892089846,121.49030642553711C62.794778892089845,122.2839084255371,61.84757589208984,122.66789642553711,60.93877389208984,122.55271542553712C60.52277589208984,122.50790742553711,60.10677689208984,122.3543124255371,59.74197589208984,122.09190742553712L58.81397589208984,121.4711114255371L61.834775892089844,117.2534984255371ZM56.31158089208984,124.9719044255371C56.31158089208984,124.9719044255371,57.90517789208984,125.76549942553712,58.449176892089845,127.19910042553711C58.711576892089845,127.89030842553711,58.51317589208985,128.7031064255371,58.052379892089846,129.3495144255371C57.48278189208985,130.1431084255371,56.53557989208984,130.5271114255371,55.62677789208985,130.4119074255371C55.210774892089844,130.36711542553712,54.79478089208985,130.21349742553713,54.429977892089845,129.9510994255371L53.29077889208985,129.1895104255371L56.31158089208984,124.9719044255371ZM50.68597589208984,132.8311114255371C50.68597589208984,132.8311114255371,52.06197889208984,133.4839134255371,52.612374892089846,134.9175074255371C52.874774892089846,135.6086994255371,52.67637489208984,136.4214974255371,52.21557789208984,137.06789742553713C51.64597889208984,137.8614924255371,50.69877789208984,138.2454794255371,49.789977892089844,138.1302984255371C49.37397789208984,138.0854914255371,48.957976892089846,137.9318964255371,48.59317789208984,137.6694904255371L47.66517589208985,137.04869442553712L50.68597589208984,132.8311114255371ZM44.849176892089844,140.9782984255371C44.849176892089844,140.9782984255371,46.14837789208984,141.5927164255371,46.66677789208984,142.9431114255371C46.916375892089846,143.59592042553712,46.72437689208984,144.3639104255371,46.28917689208984,144.96550342553712C45.751576892089844,145.7143134255371,44.86197689208984,146.0727124255371,44.00437789208984,145.9703024255371C43.607576892089845,145.92551842553712,42.90997489208984,145.57992142553712,42.57077889208985,145.33031842553711L42.00757789208984,144.9527094255371L44.85557789208984,140.97831342553712L44.849176892089844,140.9782984255371ZM54.37877889208984,165.87429742553712C54.28277789208984,165.9767074255371,54.14837789208984,166.03430742553712,54.00757589208985,166.03430742553712C53.92437589208984,166.03430742553712,53.841180892089845,166.0150974255371,53.77077689208984,165.9767074255371C47.04437689208984,162.37991742553712,41.725977892089844,158.02149742553712,37.962777092089844,153.0167074255371C37.83477739208985,152.8439074255371,37.82837679208984,152.6007074255371,37.962777092089844,152.4215174255371L40.05557729208984,149.49670742553712C40.522777592089845,149.8038874255371,41.700375892089845,150.5014974255371,43.15317589208984,150.7575074255371C43.54997789208984,150.8278874255371,43.946776892089844,150.8598974255371,44.34357789208984,150.8598974255371C45.34837889208984,150.8598974255371,46.32757789208984,150.6423274255371,47.25557689208984,150.21990742553712C48.04917689208985,149.8551074255371,48.76597789208984,149.34948742553712,49.329177892089845,148.75431742553712C50.04597889208985,147.9991074255371,50.589976892089844,147.05832742553713,50.91637789208984,146.04069942553713C51.21077389208985,145.11909842553712,51.313178892089844,144.1526984255371,51.217174892089844,143.2311134255371C52.38837589208984,143.0903054255371,53.425178892089846,142.77669942553712,54.30197289208984,142.2967034255371C55.17877989208984,141.8166924255371,55.92117289208984,141.15749742553712,56.50997889208985,140.3383064255371C57.54037289208985,138.89829642553713,58.05237389208985,137.0423084255371,57.86037789208984,135.44231042553713C58.673175892089844,135.2631114255371,59.47957589208984,134.9431194255371,60.22197489208985,134.52071042553712C61.15637589208984,133.98311242553712,61.93717589208984,133.29191942553712,62.551574892089846,132.4791064255371C63.703578892089844,130.9366954255371,64.17077589208984,129.1447024255371,63.901977892089846,127.29510842553711C64.73397489208985,127.03271142553712,65.44437389208984,126.71270342553711,66.05877689208984,126.30950542553711C66.83317589208984,125.8039134255371,67.46037689208984,125.1639064255371,67.93397489208985,124.39590842553712C68.60597589208984,123.30791842553711,68.99637989208983,122.18791542553711,69.09237689208985,121.0615124255371C69.18197589208984,120.06950742553711,69.04117989208984,119.05832242553711,68.67637289208984,118.0663184255371C67.99157689208985,116.19751342553711,66.66677889208984,114.74470942553711,65.61717989208984,113.81031442553711L69.00917389208985,109.08071142553712L90.96757889208985,127.17991242553711L54.39156889208984,165.87429742553712L54.37877889208984,165.87429742553712ZM101.70677989208984,203.2822874255371C95.75477589208984,196.3958974255371,89.96917389208984,189.1830874255371,84.02998389208985,181.2471074255371C79.14038489208984,174.7126874255371,74.13557389208984,167.6791074255371,68.65077589208985,159.6087074255371L76.36917489208984,151.4423174255371C81.39316989208984,157.66949742553712,87.15957989208985,164.28709742553713,93.68117489208984,171.3078974255371C100.03637689208985,178.15589742553712,106.09077489208984,184.3062874255371,110.11637889208984,188.3574774255371C107.13397989208984,193.33030742553711,104.15798189208985,198.6230874255371,101.71318089208984,203.2822874255371L101.70677989208984,203.2822874255371ZM168.74037689208984,124.60710542553711L165.29715689208984,125.19590342553711L171.94678689208985,145.93190342553712C167.31958689208983,150.71909742553711,164.80435689208986,156.14631742553712,164.25397689208984,162.51431742553712C159.12117689208986,163.1287274255371,153.59798689208986,163.43589742553712,147.85076689208984,163.43589742553712C142.54517689208984,163.43589742553712,137.11797689208984,163.1734974255371,131.72916689208984,162.64871742553711C131.80597689208986,161.9319174255371,131.83795689208984,161.21509742553712,131.83795689208984,160.4663174255371C131.83795689208984,158.6615074255371,131.47955689208985,157.1127074255371,130.73716689208985,155.7303074255371C130.05236089208984,154.45669742553713,129.03475989208982,153.31750742553712,127.62677789208985,152.2551174255371C124.96437089208985,150.24551742553712,121.07956689208984,148.64552742553713,116.58676189208984,146.8023074255371L116.58036089208984,146.8023074255371C112.92597189208985,145.29831342553712,110.56436889208985,143.47430842553712,109.14997089208984,141.0679134255371C108.50995589208985,139.9734994255371,108.04276289208984,138.73191442553713,107.72276289208985,137.2599064255371C107.45396389208985,136.01832242553712,107.28116589208985,134.5911214255371,107.17237089208984,132.7671164255371L115.95956389208985,131.17351142553713C117.64276889208985,130.80871242553712,118.90357989208984,130.3479274255371,119.82517289208984,129.75910542553711C120.78517189208985,129.1447024255371,121.39957389208985,128.3831134255371,121.70676389208984,127.41670642553711C121.97556289208984,126.5655024255371,122.02037089208984,125.77190042553711,121.84757189208985,124.97830542553712C121.56597089208984,123.7239034255371,120.73395489208984,122.53990542553711,119.36436489208984,121.4711114255371C116.93877389208984,119.5703084255371,112.77875489208985,116.49191642553711,109.74515489208984,114.23910942553711C108.41396289208984,113.25350542553711,107.25556189208984,112.39590842553712,106.56436189208985,111.8711124255371L110.88436089208984,106.85991242553712L108.51635789208984,104.88871042553711C107.62036889208984,104.13990442553711,105.04756189208985,101.93830842553712,103.93395989208985,100.72230142553711C103.03795589208984,99.74951142553711,102.57076989208984,98.64870442553712,102.70516189208985,97.83589942553711C102.80756389208985,97.24710442553712,103.30676289208985,96.71590042553711,104.17716989208985,96.26150542553711C105.89236489208984,95.3655014255371,107.90196189208984,94.29030642553711,109.79636389208984,93.0871014255371C111.70996089208984,91.87110142553712,113.38037089208984,90.61030942553711,114.91636689208984,89.22791242553711C118.43635589208985,86.05351242553711,121.57877389208984,81.9127044255371,124.79795789208984,76.20391242553711L164.38196689208985,107.26950442553711L166.38513689208983,108.8247074255371L168.27956689208983,107.13510542553712C168.31157689208985,107.10310342553711,171.69716689208985,104.1335064255371,176.05557689208985,104.1335064255371C176.48435689208983,104.1335064255371,176.91315689208983,104.16550042553712,177.33556689208984,104.22310642553711C179.90836689208984,104.5815044255371,181.76436689208984,105.73350542553712,182.85236689208983,107.6471024255371C183.77396689208985,109.27270542553711,183.90834689208984,111.08390442553711,183.90834689208984,112.02470742553712C183.89555689208984,118.10470942553711,177.94356689208985,123.03909642553711,168.74674689208985,124.60710542553711L168.74037689208984,124.60710542553711Z" fill="#000000" fill-opacity="1" style="mix-blend-mode:passthrough"/></g></g></g></svg>